# xmcd CD database file
#
# Track frame offsets:
#	150
#	22918
#	48017
#	70988
#	94810
#	119019
#	141037
#	163099
#	185114
#	209213
#	230045
#	251312
#
# Disc length: 3690 seconds
#
# Revision: 0
# Processed by: cddbd v1.5.1PL0 Copyright (c) Steve Scherf et al.
# Submitted via: CD2WAV32(EN) R3.19
#
DISCID=b00e680c
DTITLE=???? - EXPLOPER
DYEAR=1900
DGENRE=
TTITLE0=?????????
TTITLE1=???????
TTITLE2=Tag Team
TTITLE3=??????????
TTITLE4=Happy Ending
TTITLE5=??????????
TTITLE6=???????????
TTITLE7=???? ?Say Hello To The World.?
TTITLE8=The Fog
TTITLE9=?????????
TTITLE10=Boy, I'm Gonna Try So Hard
TTITLE11=???????????
EXTD=
EXTT0=
EXTT1=
EXTT2=
EXTT3=
EXTT4=
EXTT5=
EXTT6=
EXTT7=
EXTT8=
EXTT9=
EXTT10=
EXTT11=
PLAYORDER=
